<svg width="760" height="250" viewBox="0 0 760 250" fill="none" xmlns="http://www.w3.org/2000/svg" role="img" aria-labelledby="title desc">
  <title id="title">Most Used Languages</title>
  <desc id="desc">A stable visual overview of Arty's main languages and web development stack.</desc>

  <rect width="760" height="250" rx="14" fill="#0D1117"/>
  <rect x="0.5" y="0.5" width="759" height="249" rx="13.5" stroke="#30363D"/>

  <text x="32" y="46" fill="#F0F6FC" font-family="Segoe UI, Inter, Arial, sans-serif" font-size="24" font-weight="700">Most Used Languages</text>
  <text x="32" y="74" fill="#8B949E" font-family="Segoe UI, Inter, Arial, sans-serif" font-size="14">Current stack focus for web apps, tooling, and automation.</text>

  <rect x="32" y="104" width="696" height="20" rx="10" fill="#161B22"/>
  <path d="M42 104H314V124H42C36.4772 124 32 119.523 32 114C32 108.477 36.4772 104 42 104Z" fill="#3178C6"/>
  <rect x="314" y="104" width="188" height="20" fill="#F7DF1E"/>
  <rect x="502" y="104" width="139" height="20" fill="#3776AB"/>
  <path d="M641 104H718C723.523 104 728 108.477 728 114C728 119.523 723.523 124 718 124H641V104Z" fill="#E34F26"/>

  <g font-family="Segoe UI, Inter, Arial, sans-serif" font-size="15">
    <circle cx="42" cy="158" r="6" fill="#3178C6"/>
    <text x="60" y="163" fill="#F0F6FC" font-weight="700">TypeScript</text>
    <text x="170" y="163" fill="#8B949E">39%</text>

    <circle cx="262" cy="158" r="6" fill="#F7DF1E"/>
    <text x="280" y="163" fill="#F0F6FC" font-weight="700">JavaScript</text>
    <text x="392" y="163" fill="#8B949E">27%</text>

    <circle cx="484" cy="158" r="6" fill="#3776AB"/>
    <text x="502" y="163" fill="#F0F6FC" font-weight="700">Python</text>
    <text x="580" y="163" fill="#8B949E">20%</text>

    <circle cx="42" cy="198" r="6" fill="#E34F26"/>
    <text x="60" y="203" fill="#F0F6FC" font-weight="700">HTML / CSS</text>
    <text x="170" y="203" fill="#8B949E">14%</text>

    <circle cx="262" cy="198" r="6" fill="#06B6D4"/>
    <text x="280" y="203" fill="#F0F6FC" font-weight="700">Frontend</text>
    <text x="376" y="203" fill="#8B949E">React, Next.js, Tailwind CSS</text>
  </g>
</svg>
